<svg height="512pt" viewBox="0 0 512.00792 512" width="512pt" xmlns="http://www.w3.org/2000/svg"><path d="m418.730469 422.632812 10.953125-27.964843 44.804687 17.550781-10.953125 27.964844zm0 0" fill="#6a4124"/><path d="m368.21875 465.1875 23.136719-19.152344 22.78125 27.519532-23.136719 19.152343zm0 0" fill="#6a4124"/><path d="m451.914062 234.789062 49.109376-19.226562 10.949218 27.964844-49.105468 19.226562zm0 0" fill="#6a4124"/><path d="m456.753906 312.832031h35.203125v30.035157h-35.203125zm0 0" fill="#6a4124"/><path d="m322.902344 190.390625 36.707031-174.921875 29.394531 6.171875-36.710937 174.917969zm0 0" fill="#e0f4fe"/><path d="m132.191406 197.558594-32.148437-114.074219h-100.0351565v-30.035156h122.7773435l38.3125 135.964843zm0 0" fill="#fa235e"/><path d="m512.007812 159.351562-321.25-69.679687 187.628907-89.66796875zm0 0" fill="#00d7df"/><path d="m512.007812 159.351562-159.824218-34.839843 26.203125-124.50781275zm0 0" fill="#00aadf"/><path d="m0 243.523438 10.953125-27.964844 49.105469 19.234375-10.953125 27.964843zm0 0" fill="#86512f"/><path d="m39.292969 412.167969 44.617187-17.46875 10.949219 27.964843-44.617187 17.46875zm0 0" fill="#86512f"/><path d="m21.84375 312.832031h34.964844v30.035157h-34.964844zm0 0" fill="#86512f"/><path d="m99.6875 473.515625 22.78125-27.519531 23.136719 19.152344-22.78125 27.519531zm0 0" fill="#86512f"/><path d="m256.78125 512.003906c-58.167969 0-112.851562-22.652344-153.980469-63.78125-41.128906-41.128906-63.78125-95.8125-63.78125-153.980468 0-38.011719 9.945313-75.4375 28.761719-108.230469l4.328125-7.542969h369.339844l4.328125 7.542969c18.820312 32.792969 28.761718 70.21875 28.761718 108.230469 0 58.164062-22.648437 112.851562-63.777343 153.980468-41.128907 41.128906-95.8125 63.78125-153.980469 63.78125zm0 0" fill="#a6643f"/><path d="m103.230469 366.316406 21.375-21.09375 37.046875 37.535156-21.375 21.09375zm0 0" fill="#86512f"/><path d="m153.941406 248.710938 20.089844-22.324219 35.617188 32.054687-20.09375 22.324219zm0 0" fill="#86512f"/><path d="m212.980469 328.699219 30.035156-.136719.210937 47.109375-30.03125.136719zm0 0" fill="#86512f"/><path d="m445.78125 186.011719-4.332031-7.542969h-184.667969v333.535156c58.164062 0 112.851562-22.652344 153.980469-63.78125 41.128906-41.128906 63.78125-95.8125 63.78125-153.980468 0-38.011719-9.945313-75.4375-28.761719-108.230469zm0 0" fill="#86512f"/><g fill="#6a4124"><path d="m305.210938 271.480469 33.699218-29.226563 19.675782 22.683594-33.695313 29.230469zm0 0"/><path d="m356.1875 342.511719 20.09375-22.324219 35.617188 32.058594-20.09375 22.324218zm0 0"/><path d="m287.824219 423.546875 33.160156-33.460937 21.332031 21.140624-33.160156 33.460938zm0 0"/><path d="m305.210938 271.480469 33.699218-29.226563 19.675782 22.683594-33.695313 29.230469zm0 0"/><path d="m356.1875 342.511719 20.09375-22.324219 35.617188 32.058594-20.09375 22.324218zm0 0"/><path d="m287.824219 423.546875 33.160156-33.460937 21.332031 21.140624-33.160156 33.460938zm0 0"/></g></svg>