<svg height="511pt" viewBox="-11 0 511 511.98136" width="511pt" xmlns="http://www.w3.org/2000/svg"><g fill="#e0f4fe"><path d="m229.9375 281.40625h29.945312v215.601562h-29.945312zm0 0"/><path d="m147.589844 482.035156h194.640625v29.945313h-194.640625zm0 0"/><path d="m274.945312 296.378906h-60.070312l-214.382812-232h488.839843zm0 0"/></g><path d="m245.101562 281.40625h14.78125v215.601562h-14.78125zm0 0" fill="#bcdbfd"/><path d="m245.101562 482.035156h97.128907v29.945313h-97.128907zm0 0" fill="#bcdbfd"/><path d="m489.332031 64.378906h-244.230469v232h29.84375zm0 0" fill="#bcdbfd"/><path d="m78.304688 148.585938 136.570312 147.792968h60.070312l136.570313-147.792968zm0 0" fill="#fed843"/><path d="m411.515625 148.585938h-166.414063v147.792968h29.84375zm0 0" fill="#edbe2b"/><path d="m263.769531 138.40625 127.910157-138.40625 21.992187 20.324219-127.910156 138.40625zm0 0" fill="#9bbad9"/><path d="m251.089844 228.421875c-27.820313 0-50.453125-22.632813-50.453125-50.457031 0-27.820313 22.632812-50.453125 50.453125-50.453125 27.820312 0 50.453125 22.632812 50.453125 50.453125 0 27.824218-22.632813 50.457031-50.453125 50.457031zm0 0" fill="#fa235e"/><path d="m251.089844 127.511719c-2.027344 0-4.023438.132812-5.988282.367187v100.171875c1.964844.234375 3.960938.371094 5.988282.371094 27.820312 0 50.453125-22.632813 50.453125-50.457031 0-27.820313-22.632813-50.453125-50.453125-50.453125zm0 0" fill="#c91341"/></svg>